<svg width="20" height="20" viewBox="0 0 20 20" fill="none" xmlns="http://www.w3.org/2000/svg">
<g clip-path="url(#clip0_138_45)">
<path d="M12.0833 10C12.0833 9.44749 11.8638 8.91758 11.4731 8.52688C11.0824 8.13618 10.5525 7.91669 10 7.91669C9.44746 7.91669 8.91756 8.13618 8.52686 8.52688C8.13616 8.91758 7.91666 9.44749 7.91666 10C7.91666 10.5526 8.13616 11.0825 8.52686 11.4732C8.91756 11.8639 9.44746 12.0834 10 12.0834C10.5525 12.0834 11.0824 11.8639 11.4731 11.4732C11.8638 11.0825 12.0833 10.5526 12.0833 10Z" stroke="#646464" stroke-linecap="round" stroke-linejoin="round"/>
<path d="M8.33333 4.07501C8.33333 5.27084 6.83167 6.18667 5.77167 5.56834C3.87917 4.54917 2.44167 7.35584 4.11333 8.48167C5.13333 9.07667 5.13417 10.8817 4.11333 11.4775C2.31083 12.57 3.95583 15.3608 5.77167 14.3825C6.92083 13.7125 8.33417 14.8092 8.33417 16.0125C8.33417 18.0217 11.6508 17.97 11.6508 16.0125C11.6508 14.7867 13.0425 13.7 14.2125 14.3825C16.0792 15.3883 17.6858 12.4558 15.8708 11.4775C14.8492 10.8817 14.85 9.06917 15.8708 8.47417C17.6733 7.38167 16.0292 4.59084 14.2125 5.56834C13.1767 6.17334 11.6517 5.26584 11.6508 4.07501C11.6508 1.94167 8.33417 2.00834 8.33417 4.07501" stroke="#646464" stroke-linecap="round" stroke-linejoin="round"/>
</g>
<defs>
<clipPath id="clip0_138_45">
<rect width="20" height="20" fill="white"/>
</clipPath>
</defs>
</svg>
