<svg width="20" height="20" viewBox="0 0 20 20" fill="none" xmlns="http://www.w3.org/2000/svg">
<path d="M6.25 1.875H8.10667C9.0175 1.875 9.9775 2.2025 10.8792 2.6975C11.7875 3.19583 12.6783 3.8875 13.4608 4.67083C14.2433 5.45417 14.9333 6.3425 15.4308 7.2475C15.9233 8.145 16.25 9.09833 16.25 10V15.625C16.25 16.288 15.9866 16.9239 15.5178 17.3928C15.0489 17.8616 14.413 18.125 13.75 18.125H6.25C5.58696 18.125 4.95107 17.8616 4.48223 17.3928C4.01339 16.9239 3.75 16.288 3.75 15.625V4.375C3.75 3.71196 4.01339 3.07607 4.48223 2.60723C4.95107 2.13839 5.58696 1.875 6.25 1.875ZM12.5767 5.55417C11.9796 4.95226 11.3139 4.42252 10.5933 3.97583C10.6144 4.10583 10.625 4.23889 10.625 4.375V6.25C10.625 6.58152 10.7567 6.89946 10.9911 7.13388C11.2255 7.3683 11.5435 7.5 11.875 7.5H13.75C13.8867 7.5 14.0203 7.51056 14.1508 7.53167C13.7051 6.81334 13.1768 6.14965 12.5767 5.55417ZM7.5 10.625C7.33424 10.625 7.17527 10.6908 7.05806 10.8081C6.94085 10.9253 6.875 11.0842 6.875 11.25C6.875 11.4158 6.94085 11.5747 7.05806 11.6919C7.17527 11.8092 7.33424 11.875 7.5 11.875H10.8333C10.9991 11.875 11.1581 11.8092 11.2753 11.6919C11.3925 11.5747 11.4583 11.4158 11.4583 11.25C11.4583 11.0842 11.3925 10.9253 11.2753 10.8081C11.1581 10.6908 10.9991 10.625 10.8333 10.625H7.5ZM7.5 13.125C7.33424 13.125 7.17527 13.1908 7.05806 13.3081C6.94085 13.4253 6.875 13.5842 6.875 13.75C6.875 13.9158 6.94085 14.0747 7.05806 14.1919C7.17527 14.3092 7.33424 14.375 7.5 14.375H12.5C12.6658 14.375 12.8247 14.3092 12.9419 14.1919C13.0592 14.0747 13.125 13.9158 13.125 13.75C13.125 13.5842 13.0592 13.4253 12.9419 13.3081C12.8247 13.1908 12.6658 13.125 12.5 13.125H7.5Z" fill="#646464"/>
</svg>
