<svg width="20" height="20" viewBox="0 0 20 20" fill="none" xmlns="http://www.w3.org/2000/svg">
<path d="M15.7708 2.61416C15.5365 2.37971 15.2583 2.19374 14.952 2.06688C14.6458 1.94002 14.3176 1.87477 13.9861 1.87485C13.6546 1.87492 13.3264 1.94033 13.0202 2.06733C12.714 2.19433 12.4359 2.38043 12.2017 2.61499L4.27917 10.5483C3.80711 11.0215 3.5419 11.6625 3.54167 12.3308V15C3.54167 15.345 3.82167 15.625 4.16667 15.625H6.8525C7.52166 15.625 8.16333 15.3583 8.63583 14.8858L16.5525 6.96416C17.0247 6.4908 17.2899 5.84946 17.2899 5.18083C17.2899 4.51219 17.0247 3.87085 16.5525 3.39749L15.7708 2.61416ZM3.33333 16.875C3.16757 16.875 3.0086 16.9408 2.89139 17.058C2.77418 17.1753 2.70833 17.3342 2.70833 17.5C2.70833 17.6658 2.77418 17.8247 2.89139 17.9419C3.0086 18.0591 3.16757 18.125 3.33333 18.125H16.6667C16.8324 18.125 16.9914 18.0591 17.1086 17.9419C17.2258 17.8247 17.2917 17.6658 17.2917 17.5C17.2917 17.3342 17.2258 17.1753 17.1086 17.058C16.9914 16.9408 16.8324 16.875 16.6667 16.875H3.33333Z" fill="#646464"/>
</svg>
