<svg width="20" height="20" viewBox="0 0 20 20" fill="none" xmlns="http://www.w3.org/2000/svg">
<path d="M8.275 9.11725L9.30925 10.2985C9.33155 10.3236 9.35917 10.3433 9.39009 10.3563C9.421 10.3693 9.45444 10.3752 9.48794 10.3737C9.52144 10.3721 9.55417 10.363 9.58372 10.3472C9.61328 10.3313 9.63891 10.309 9.65875 10.282L11.7588 7.375" stroke="#646464" stroke-linecap="round" stroke-linejoin="round"/>
<path d="M3.598 13.621C2.5 12.7427 2.5 12.0782 2.5 9.25C2.5 6.42175 2.5 5.00725 3.598 4.129C4.6975 3.25 6.4645 3.25 10 3.25C13.5355 3.25 15.3032 3.25 16.4012 4.129C17.4992 5.008 17.5 6.42175 17.5 9.25C17.5 12.0782 17.5 12.7427 16.4012 13.621C15.304 14.5 13.5355 14.5 10 14.5C8.1175 14.5 7.15 15.8035 5.5 16.75V14.341C4.6795 14.2188 4.07575 14.0035 3.598 13.621Z" stroke="#646464" stroke-linecap="round" stroke-linejoin="round"/>
</svg>
