<svg width="20" height="20" viewBox="0 0 20 20" fill="none" xmlns="http://www.w3.org/2000/svg">
<g clip-path="url(#clip0_138_34)">
<path d="M14.1667 16.25C14.1667 14.8692 12.3008 13.75 10 13.75C7.69917 13.75 5.83333 14.8692 5.83333 16.25M17.5 13.75C17.5 12.725 16.4717 11.8442 15 11.4583M2.5 13.75C2.5 12.725 3.52833 11.8442 5 11.4583M15 8.11335C15.2469 7.89509 15.4482 7.63018 15.5923 7.33384C15.7365 7.03751 15.8206 6.71561 15.8399 6.38665C15.8592 6.05768 15.8132 5.72815 15.7047 5.41701C15.5962 5.10586 15.4272 4.81924 15.2075 4.57363C14.9878 4.32802 14.7218 4.12826 14.4246 3.98585C14.1274 3.84344 13.805 3.76118 13.476 3.7438C13.1469 3.72643 12.8176 3.77428 12.5071 3.88461C12.1966 3.99494 11.911 4.16557 11.6667 4.38668M5 8.11335C4.51025 7.67014 4.2158 7.05112 4.18097 6.39151C4.14615 5.73191 4.37377 5.08532 4.81413 4.593C5.25449 4.10069 5.87178 3.80264 6.53118 3.76398C7.19057 3.72533 7.83846 3.94919 8.33333 4.38668M10 11.25C9.33696 11.25 8.70107 10.9866 8.23223 10.5178C7.76339 10.0489 7.5 9.41305 7.5 8.75001C7.5 8.08697 7.76339 7.45109 8.23223 6.98225C8.70107 6.5134 9.33696 6.25001 10 6.25001C10.663 6.25001 11.2989 6.5134 11.7678 6.98225C12.2366 7.45109 12.5 8.08697 12.5 8.75001C12.5 9.41305 12.2366 10.0489 11.7678 10.5178C11.2989 10.9866 10.663 11.25 10 11.25Z" stroke="#646464" stroke-linecap="round" stroke-linejoin="round"/>
</g>
<defs>
<clipPath id="clip0_138_34">
<rect width="20" height="20" fill="white"/>
</clipPath>
</defs>
</svg>
