<svg width="20" height="20" viewBox="0 0 20 20" fill="none" xmlns="http://www.w3.org/2000/svg">
<path d="M2.125 11.1717C1.89833 10.8608 1.785 10.705 1.70667 10.405C1.65378 10.1379 1.65378 9.86295 1.70667 9.59582C1.785 9.29499 1.89833 9.13916 2.125 8.82916C3.36583 7.12499 6.08583 4.16666 10 4.16666C13.9142 4.16666 16.6342 7.12499 17.875 8.82832C18.1017 9.13916 18.215 9.29499 18.2933 9.59499C18.3462 9.86212 18.3462 10.137 18.2933 10.4042C18.215 10.705 18.1017 10.8608 17.875 11.1708C16.6342 12.875 13.9142 15.8333 10 15.8333C6.08583 15.8333 3.36583 12.875 2.125 11.1717Z" stroke="#646464" stroke-linecap="round" stroke-linejoin="round"/>
<path d="M10 11.6666C10.442 11.6666 10.8659 11.4911 11.1785 11.1785C11.4911 10.8659 11.6667 10.442 11.6667 9.99998C11.6667 9.55795 11.4911 9.13403 11.1785 8.82147C10.8659 8.50891 10.442 8.33331 10 8.33331C9.55797 8.33331 9.13405 8.50891 8.82149 8.82147C8.50893 9.13403 8.33333 9.55795 8.33333 9.99998C8.33333 10.442 8.50893 10.8659 8.82149 11.1785C9.13405 11.4911 9.55797 11.6666 10 11.6666Z" stroke="#646464" stroke-linecap="round" stroke-linejoin="round"/>
</svg>
