<svg width="20" height="20" viewBox="0 0 20 20" fill="none" xmlns="http://www.w3.org/2000/svg">
<path d="M17.5 10C17.5 10.9849 17.306 11.9602 16.9291 12.8701C16.5522 13.7801 15.9997 14.6069 15.3033 15.3033C14.6069 15.9997 13.7801 16.5522 12.8701 16.9291C11.9602 17.306 10.9849 17.5 10 17.5C9.01509 17.5 8.03982 17.306 7.12987 16.9291C6.21993 16.5522 5.39314 15.9997 4.6967 15.3033C4.00026 14.6069 3.44781 13.7801 3.0709 12.8701C2.69399 11.9602 2.5 10.9849 2.5 10C2.5 8.01088 3.29018 6.10322 4.6967 4.6967C6.10322 3.29018 8.01088 2.5 10 2.5C11.9891 2.5 13.8968 3.29018 15.3033 4.6967C16.7098 6.10322 17.5 8.01088 17.5 10Z" stroke="#646464" stroke-width="1.25" stroke-linecap="round" stroke-linejoin="round"/>
<path d="M14.1667 16.25C13.9025 11.0942 6.0975 11.0942 5.83333 16.25M12.0833 7.70833C12.0833 8.26087 11.8638 8.79077 11.4731 9.18147C11.0824 9.57217 10.5525 9.79167 10 9.79167C9.44747 9.79167 8.91756 9.57217 8.52686 9.18147C8.13616 8.79077 7.91667 8.26087 7.91667 7.70833C7.91667 7.1558 8.13616 6.62589 8.52686 6.23519C8.91756 5.84449 9.44747 5.625 10 5.625C10.5525 5.625 11.0824 5.84449 11.4731 6.23519C11.8638 6.62589 12.0833 7.1558 12.0833 7.70833Z" stroke="#646464" stroke-width="1.25" stroke-linecap="round" stroke-linejoin="round"/>
</svg>
