<svg width="20" height="20" viewBox="0 0 20 20" fill="none" xmlns="http://www.w3.org/2000/svg">
<path d="M6.875 6.25C6.875 5.4212 7.20424 4.62634 7.79029 4.04029C8.37634 3.45424 9.1712 3.125 10 3.125C10.8288 3.125 11.6237 3.45424 12.2097 4.04029C12.7958 4.62634 13.125 5.4212 13.125 6.25C13.125 7.0788 12.7958 7.87366 12.2097 8.45971C11.6237 9.04576 10.8288 9.375 10 9.375C9.1712 9.375 8.37634 9.04576 7.79029 8.45971C7.20424 7.87366 6.875 7.0788 6.875 6.25ZM16.8742 17.0517C16.6558 12.7617 13.285 10.625 10 10.625C6.715 10.625 3.34417 12.7608 3.12583 17.0517C3.11744 17.2171 3.17503 17.379 3.28597 17.502C3.39691 17.625 3.55211 17.6989 3.7175 17.7075C6.52167 17.85 14.5492 17.7958 16.2817 17.7075C16.4472 17.6991 16.6026 17.6253 16.7137 17.5023C16.8248 17.3793 16.8826 17.2172 16.8742 17.0517ZM11.8175 12.6183C11.9519 12.7154 12.0422 12.8618 12.0686 13.0254C12.095 13.189 12.0553 13.3565 11.9583 13.4908L10.2083 15.9133C10.1369 16.0123 10.0441 16.0938 9.9368 16.1519C9.82951 16.21 9.7105 16.2432 9.58862 16.249C9.46674 16.2547 9.34513 16.2329 9.23284 16.1852C9.12054 16.1375 9.02044 16.0651 8.94 15.9733L8.07833 14.9883C7.96915 14.8636 7.914 14.7005 7.92502 14.5351C7.93604 14.3697 8.01232 14.2154 8.13708 14.1062C8.26184 13.9971 8.42487 13.9419 8.59029 13.9529C8.75571 13.964 8.90999 14.0402 9.01917 14.165L9.5175 14.735L10.945 12.7592C11.042 12.6248 11.1885 12.5345 11.3521 12.5081C11.5157 12.4817 11.6831 12.5213 11.8175 12.6183Z" fill="#646464"/>
</svg>
