<svg width="20" height="20" viewBox="0 0 20 20" fill="none" xmlns="http://www.w3.org/2000/svg">
<path d="M7 4V2.5M13 4V2.5M10 17.5C6.99475 17.5 5.4925 17.5 4.55875 16.5115C3.625 15.523 3.625 13.9315 3.625 10.75C3.625 7.5685 3.625 5.977 4.55875 4.9885C5.4925 4 6.99475 4 10 4C13.0052 4 14.5075 4 15.4412 4.9885C16.375 5.977 16.375 7.5685 16.375 10.75C16.375 13.9315 16.375 15.523 15.4412 16.5115C14.5075 17.5 13.0052 17.5 10 17.5Z" stroke="#646464" stroke-linecap="round" stroke-linejoin="round"/>
<path d="M11.5135 8.11975C11.5135 8.51758 11.3555 8.89911 11.0742 9.18041C10.7929 9.46172 10.4113 9.61975 10.0135 9.61975C9.61567 9.61975 9.23414 9.46172 8.95284 9.18041C8.67154 8.89911 8.5135 8.51758 8.5135 8.11975C8.5135 7.72193 8.67154 7.3404 8.95284 7.05909C9.23414 6.77779 9.61567 6.61975 10.0135 6.61975C10.4113 6.61975 10.7929 6.77779 11.0742 7.05909C11.3555 7.3404 11.5135 7.72193 11.5135 8.11975ZM7.04725 13.537C7.84075 12.3145 9.1015 11.857 10.0135 11.8578C10.9255 11.8585 12.1495 12.3153 12.943 13.5378C12.994 13.6165 13.0083 13.7133 12.9618 13.7958C12.7765 14.125 12.1997 14.7783 11.7842 14.8225C11.3057 14.8728 10.054 14.8803 10.0142 14.8803C9.9745 14.8803 8.68525 14.8728 8.20675 14.8225C7.78975 14.7775 7.21375 14.125 7.02775 13.795C6.982 13.7133 6.99625 13.6165 7.04725 13.537Z" stroke="#646464" stroke-linecap="round" stroke-linejoin="round"/>
</svg>
